<?xml version="1.0" standalone="no"?>
<!DOCTYPE svg PUBLIC "-//W3C//DTD SVG 20010904//EN"
 "http://www.w3.org/TR/2001/REC-SVG-20010904/DTD/svg10.dtd">
<svg version="1.0" xmlns="http://www.w3.org/2000/svg"
 width="1088.000000pt" height="1088.000000pt" viewBox="0 0 1088.000000 1088.000000"
 preserveAspectRatio="xMidYMid meet">
<metadata>
Created by potrace 1.11, written by Peter Selinger 2001-2013
</metadata>
<g transform="translate(0.000000,1088.000000) scale(0.100000,-0.100000)"
fill="#000000" stroke="none">
<path d="M2027 10864 c-83 -18 -164 -55 -237 -108 -132 -96 -205 -207 -258
-387 -3 -13 -8 -428 -9 -922 l-4 -898 52 6 c29 4 59 8 68 10 9 1 36 6 61 10
25 3 57 8 72 11 15 2 71 13 125 24 54 11 107 22 118 24 40 7 170 37 185 43 8
3 24 7 35 9 11 1 47 10 80 19 33 9 70 18 82 21 12 2 34 9 48 14 14 5 25 7 25
5 0 -2 12 0 28 6 15 6 38 13 52 16 14 2 48 11 75 19 28 8 68 20 90 26 22 6 59
17 83 24 23 8 51 14 61 14 10 0 21 3 25 7 3 4 15 8 25 10 19 3 172 46 201 57
8 3 26 8 40 10 14 3 66 17 115 31 50 14 101 27 115 30 14 2 37 8 53 14 15 6
40 13 55 16 15 3 32 7 37 9 6 1 28 7 50 11 55 12 55 12 58 14 1 2 11 4 22 6
11 2 50 11 85 20 36 9 81 18 100 21 19 2 49 9 65 14 17 5 50 12 75 15 25 4 52
9 61 10 21 4 89 16 114 20 11 1 34 5 50 8 49 9 169 22 315 34 163 14 543 7
650 -11 14 -3 48 -7 75 -10 28 -3 64 -8 80 -11 120 -22 189 -36 250 -51 39 -9
79 -18 90 -20 11 -1 20 -3 20 -4 0 -1 7 -3 15 -5 8 -1 40 -10 70 -20 30 -9 80
-23 110 -31 65 -17 454 -142 490 -157 14 -6 28 -11 33 -12 4 -2 8 -3 10 -5 1
-1 9 -3 18 -5 25 -5 172 -55 189 -64 9 -5 31 -12 50 -16 19 -4 41 -12 49 -19
8 -6 17 -10 20 -9 3 2 58 -14 121 -33 167 -53 438 -129 495 -139 11 -2 36 -7
55 -10 19 -3 42 -8 50 -11 8 -3 29 -8 45 -11 17 -2 41 -7 55 -9 28 -6 59 -10
140 -18 30 -3 66 -8 80 -11 125 -25 678 -25 865 0 26 4 72 9 155 19 14 2 39 6
55 9 17 4 48 9 70 12 52 7 82 13 200 40 39 9 79 18 90 20 11 2 48 12 83 21
l63 17 -4 841 c-2 462 -6 855 -9 873 -21 104 -103 250 -181 325 -61 59 -217
161 -217 142 0 -4 -6 -2 -12 4 -7 5 -29 13 -48 18 -19 4 -42 10 -50 13 -8 3
-1529 6 -3380 7 -2926 2 -3374 1 -3433 -12z"/>
<path d="M7648 7704 c-2 -1 -55 -5 -118 -9 -117 -8 -165 -12 -165 -14 0 -1
-27 -4 -60 -6 -64 -5 -114 -10 -210 -25 -33 -5 -80 -12 -105 -15 -25 -3 -57
-8 -72 -11 -47 -9 -92 -16 -120 -17 -16 -1 -28 -6 -28 -10 0 -5 -3 -6 -7 -4
-5 3 -48 -3 -96 -14 -49 -10 -92 -18 -95 -17 -4 1 -25 -4 -47 -10 -22 -6 -53
-13 -70 -16 -16 -2 -30 -5 -30 -6 0 -2 -24 -7 -70 -15 -22 -4 -43 -9 -46 -11
-3 -2 -21 -6 -40 -9 -19 -3 -52 -11 -74 -17 -22 -5 -51 -12 -65 -14 -14 -3
-39 -9 -57 -15 -17 -5 -44 -12 -60 -15 -15 -3 -44 -10 -63 -16 -39 -13 -55
-17 -87 -20 -13 -1 -23 -5 -23 -9 0 -3 -6 -6 -12 -6 -7 0 -49 -10 -93 -22 -44
-12 -91 -24 -105 -27 -14 -2 -32 -7 -40 -10 -22 -9 -292 -84 -315 -88 -11 -2
-33 -9 -50 -16 -16 -6 -31 -11 -32 -11 -2 1 -4 1 -5 0 -2 0 -10 -2 -18 -4 -8
-2 -112 -31 -230 -65 -118 -33 -226 -63 -240 -66 -14 -2 -36 -9 -50 -14 -14
-5 -34 -11 -45 -13 -11 -2 -40 -9 -65 -16 -25 -7 -52 -15 -60 -17 -8 -2 -40
-10 -70 -19 -30 -9 -64 -18 -75 -20 -11 -2 -44 -10 -73 -18 -29 -9 -56 -16
-60 -16 -4 -1 -23 -6 -42 -11 -19 -5 -46 -11 -60 -14 -14 -3 -63 -15 -110 -26
-47 -12 -96 -24 -110 -26 -13 -3 -61 -14 -106 -24 -79 -19 -103 -24 -169 -35
-30 -5 -57 -11 -105 -20 -55 -12 -196 -37 -220 -40 -14 -2 -38 -5 -55 -8 -40
-8 -114 -19 -145 -22 -14 -1 -47 -5 -75 -9 -107 -14 -122 -16 -195 -21 -41 -3
-97 -8 -125 -11 -176 -18 -580 -18 -790 1 -140 12 -172 15 -200 20 -27 4 -100
13 -150 18 -20 2 -20 -5 -23 -954 l-2 -956 67 19 c38 10 77 20 88 22 11 2 20
4 20 5 0 3 19 8 60 16 17 3 39 9 50 12 11 4 25 8 30 9 6 1 39 10 75 19 62 16
75 19 118 29 10 2 47 11 83 20 95 23 380 87 409 91 44 6 94 16 135 26 22 5 55
12 73 14 18 2 41 6 50 9 9 3 35 8 57 11 23 3 50 7 60 9 11 2 40 7 65 11 25 4
53 9 64 11 10 2 44 6 75 9 31 4 67 8 81 11 57 10 87 14 130 18 25 3 77 8 115
11 240 25 357 30 650 29 247 -1 460 -7 460 -14 0 -1 20 -3 45 -4 25 -2 72 -7
105 -11 33 -4 74 -9 90 -10 17 -2 44 -6 60 -9 17 -3 50 -8 75 -11 35 -4 281
-50 381 -70 41 -8 158 -37 189 -46 20 -6 48 -12 63 -12 15 -1 27 -5 27 -8 0
-3 6 -6 13 -6 24 -1 427 -113 467 -130 8 -3 22 -7 30 -9 21 -4 178 -53 215
-67 17 -7 33 -12 38 -13 4 -1 9 -3 12 -4 5 -3 6 -3 50 -15 17 -4 36 -12 43
-18 6 -5 12 -7 12 -4 0 3 48 -12 108 -33 59 -20 110 -38 114 -39 18 -4 98 -31
123 -41 21 -9 503 -171 520 -175 6 -1 19 -5 30 -9 11 -5 32 -12 47 -18 15 -6
30 -10 33 -9 2 0 29 -8 57 -18 87 -31 499 -158 537 -166 12 -2 26 -7 32 -10 5
-4 25 -9 42 -12 18 -3 50 -11 72 -18 53 -17 330 -84 435 -105 30 -5 66 -13 80
-16 14 -3 39 -8 55 -11 44 -8 60 -11 60 -13 0 -1 16 -3 35 -5 19 -2 49 -6 65
-9 56 -11 80 -15 130 -21 28 -4 66 -9 85 -12 35 -5 55 -7 183 -18 l67 -6 0
1750 0 1750 -42 12 c-24 6 -54 15 -68 20 -36 12 -294 71 -370 85 -14 2 -59 11
-100 19 -74 14 -145 26 -185 31 -11 1 -20 3 -20 4 0 1 -20 3 -45 5 -25 3 -63
7 -85 11 -22 3 -60 7 -85 9 -25 2 -72 7 -105 10 -57 6 -602 14 -607 9z"/>
<path d="M2847 3013 c-2 -1 -50 -5 -107 -8 -58 -3 -121 -7 -140 -9 -19 -3 -72
-7 -117 -11 -46 -3 -93 -8 -105 -10 -12 -3 -46 -7 -77 -10 -31 -3 -85 -10
-121 -16 -36 -5 -78 -12 -95 -15 -16 -2 -41 -6 -55 -9 -14 -3 -41 -7 -60 -10
-19 -3 -42 -8 -50 -10 -8 -2 -33 -7 -55 -10 -49 -7 -74 -11 -143 -27 -47 -10
-53 -14 -47 -32 3 -12 8 -28 10 -36 9 -35 47 -157 54 -175 5 -11 28 -69 51
-130 80 -209 187 -425 313 -628 37 -60 67 -113 67 -117 0 -5 3 -10 8 -12 4 -1
39 -48 79 -103 91 -128 108 -149 236 -300 51 -60 344 -355 352 -355 6 0 43
-32 90 -75 17 -16 39 -34 47 -40 13 -8 167 -124 203 -152 33 -26 266 -173 274
-173 5 0 16 -6 23 -13 7 -8 25 -20 40 -28 70 -37 337 -169 342 -169 4 0 28 -9
54 -21 114 -51 162 -69 162 -62 0 3 6 1 13 -4 16 -13 278 -98 366 -118 38 -9
139 -34 144 -36 2 -1 13 -3 77 -14 19 -3 55 -10 80 -15 72 -14 142 -24 355
-47 57 -6 578 -11 588 -6 4 3 34 6 65 8 100 6 238 24 347 46 28 5 64 11 80 13
17 2 50 9 75 16 25 7 56 14 70 16 43 8 241 65 315 90 39 14 78 27 88 29 44 10
361 143 422 177 11 6 46 25 79 41 32 16 92 49 133 73 41 24 77 44 79 44 3 0
17 8 32 19 15 10 63 42 107 71 71 46 252 176 265 190 3 3 28 23 55 45 28 22
55 44 61 50 7 5 44 39 84 75 166 148 383 383 485 524 11 16 25 33 30 40 21 23
125 175 127 187 3 13 -7 15 -164 24 -65 3 -126 8 -135 10 -10 1 -47 6 -83 10
-122 12 -145 15 -174 21 -16 3 -45 8 -65 9 -20 2 -36 4 -36 5 0 2 -27 6 -115
20 -36 5 -76 12 -90 16 -14 3 -34 7 -45 9 -61 9 -390 84 -466 106 -24 7 -48
13 -54 14 -5 2 -34 10 -62 18 -29 9 -53 13 -53 10 0 -3 -6 -1 -12 4 -7 6 -26
13 -43 17 -34 8 -162 45 -185 53 -8 3 -20 7 -25 8 -30 7 -133 39 -150 47 -12
5 -30 11 -40 13 -11 2 -20 4 -20 5 0 1 -9 3 -20 5 -10 2 -28 8 -40 14 -22 11
-208 72 -228 75 -7 1 -16 4 -22 7 -9 6 -113 42 -125 44 -10 2 -85 27 -105 35
-36 14 -114 41 -120 41 -4 -1 -124 41 -170 59 -11 4 -72 24 -135 45 -63 20
-122 39 -130 42 -8 4 -17 7 -20 8 -12 3 -86 27 -100 32 -8 4 -17 7 -20 8 -3 0
-32 9 -65 20 -33 10 -62 19 -65 20 -3 1 -39 12 -80 25 -41 13 -77 25 -80 25
-3 1 -32 10 -65 20 -33 10 -67 20 -76 21 -9 0 -21 4 -28 8 -6 4 -19 9 -28 11
-10 2 -45 12 -78 21 -33 9 -67 18 -75 19 -8 2 -15 4 -15 5 0 1 -7 3 -15 5 -8
2 -24 6 -35 9 -11 3 -48 12 -82 21 -35 8 -91 22 -125 30 -79 19 -93 22 -145
31 -24 4 -43 9 -43 13 0 3 -10 6 -22 7 -13 0 -39 3 -58 7 -19 4 -48 9 -65 12
-16 3 -39 7 -51 10 -12 3 -39 7 -60 10 -21 4 -50 8 -64 11 -14 2 -45 6 -70 10
-25 3 -56 7 -70 10 -14 2 -47 6 -75 9 -27 3 -75 8 -105 11 -30 3 -89 8 -130
11 -79 5 -729 11 -733 6z"/>
</g>
</svg>
